<svg width="273" height="273" xmlns="http://www.w3.org/2000/svg" xmlns:xlink="http://www.w3.org/1999/xlink" overflow="hidden"><defs><clipPath id="clip0"><rect x="1063" y="511" width="273" height="273"/></clipPath><clipPath id="clip1"><rect x="1103" y="553" width="190" height="190"/></clipPath><clipPath id="clip2"><rect x="1103" y="553" width="190" height="190"/></clipPath><clipPath id="clip3"><rect x="1103" y="553" width="190" height="190"/></clipPath></defs><g clip-path="url(#clip0)" transform="translate(-1063 -511)"><path d="M0 134C-1.706e-14 59.9938 59.9938-1.706e-14 134-3.41199e-14 208.006-6.82399e-14 268 59.9938 268 134 268 208.006 208.006 268 134 268 59.9938 268-8.52999e-14 208.006 0 134Z" stroke="#FFFFFF" stroke-width="4.58333" stroke-miterlimit="8" fill="#C5E0B4" fill-rule="evenodd" transform="matrix(1 0 0 -1 1065.5 781.5)"/><path d="M0 0 0.000360892 267.936" stroke="#FFFFFF" stroke-width="4.58333" stroke-miterlimit="8" fill="#C5E0B4" fill-rule="evenodd" transform="matrix(1 0 0 -1 1199.5 781.436)"/><path d="M0 0 189.459 189.459" stroke="#FFFFFF" stroke-width="4.58333" stroke-miterlimit="8" fill="#C5E0B4" fill-rule="evenodd" transform="matrix(1 0 0 -1 1104.5 741.959)"/><path d="M0 0 267.936 0.000360892" stroke="#FFFFFF" stroke-width="4.58333" stroke-miterlimit="8" fill="#C5E0B4" fill-rule="evenodd" transform="matrix(1 0 0 -1 1065.5 647.5)"/><path d="M1104.5 552.5 1293.96 741.959" stroke="#FFFFFF" stroke-width="4.58333" stroke-miterlimit="8" fill="#C5E0B4" fill-rule="evenodd"/><path d="M0 120C-1.52776e-14 53.7258 53.7259-1.52776e-14 120-3.05552e-14 186.274-6.11104e-14 240 53.7258 240 120 240 186.274 186.274 240 120 240 53.7259 240-7.63881e-14 186.274 0 120Z" stroke="#FFFFFF" stroke-width="4.58333" stroke-miterlimit="8" fill="#C5E0B4" fill-rule="evenodd" transform="matrix(1 0 0 -1 1079.5 767.5)"/><g clip-path="url(#clip1)"><g clip-path="url(#clip2)"><g clip-path="url(#clip3)"><path d="M1203.68 571.406C1217.88 586.958 1237.45 596.54 1258.45 598.216 1262.35 598.582 1265.32 601.869 1265.29 605.786L1265.29 624.893C1265.29 666.426 1238.88 704.422 1202.2 727.932 1199.68 729.549 1196.45 729.549 1193.93 727.932 1157.25 704.422 1130.83 666.426 1130.83 624.893L1130.83 605.786C1130.8 601.869 1133.78 598.582 1137.68 598.216 1158.67 596.54 1178.24 586.958 1192.44 571.406 1195.12 568.304 1199.81 567.959 1202.91 570.636 1203.18 570.873 1203.44 571.131 1203.68 571.406Z" fill="#91C46E"/></g></g></g></g></svg>