<svg width="273" height="273" xmlns="http://www.w3.org/2000/svg" xmlns:xlink="http://www.w3.org/1999/xlink" overflow="hidden"><defs><clipPath id="clip0"><rect x="864" y="109" width="273" height="273"/></clipPath></defs><g clip-path="url(#clip0)" transform="translate(-864 -109)"><path d="M866.5 245.5C866.5 171.494 926.494 111.5 1000.5 111.5 1074.51 111.5 1134.5 171.494 1134.5 245.5 1134.5 319.506 1074.51 379.5 1000.5 379.5 926.494 379.5 866.5 319.506 866.5 245.5Z" stroke="#FFFFFF" stroke-width="4.58333" stroke-miterlimit="8" fill="#FF8F8F" fill-rule="evenodd"/><path d="M1000.5 111.5 1000.5 379.436" stroke="#FFFFFF" stroke-width="4.58333" stroke-miterlimit="8" fill="#FF8F8F" fill-rule="evenodd"/><path d="M905.5 150.5 1094.96 339.959" stroke="#FFFFFF" stroke-width="4.58333" stroke-miterlimit="8" fill="#FF8F8F" fill-rule="evenodd"/><path d="M866.5 245.5 1134.44 245.5" stroke="#FFFFFF" stroke-width="4.58333" stroke-miterlimit="8" fill="#FF8F8F" fill-rule="evenodd"/><path d="M0 0 189.459 189.459" stroke="#FFFFFF" stroke-width="4.58333" stroke-miterlimit="8" fill="#FF8F8F" fill-rule="evenodd" transform="matrix(1 0 0 -1 905.5 339.959)"/><path d="M880.5 245.5C880.5 179.226 934.226 125.5 1000.5 125.5 1066.77 125.5 1120.5 179.226 1120.5 245.5 1120.5 311.774 1066.77 365.5 1000.5 365.5 934.226 365.5 880.5 311.774 880.5 245.5Z" stroke="#FFFFFF" stroke-width="4.58333" stroke-miterlimit="8" fill="#FF8F8F" fill-rule="evenodd"/><path d="M1062.5 231 1031.75 231 1031.75 305.5 970.25 305.5 970.25 231 939.5 231 1001 169.5Z" stroke="#FFFFFF" stroke-width="4.58333" stroke-miterlimit="8" fill="#FF6565" fill-rule="evenodd"/></g></svg>