<svg width="273" height="273" xmlns="http://www.w3.org/2000/svg" xmlns:xlink="http://www.w3.org/1999/xlink" overflow="hidden"><defs><clipPath id="clip0"><rect x="1501" y="167" width="273" height="273"/></clipPath></defs><g clip-path="url(#clip0)" transform="translate(-1501 -167)"><path d="M0 134C-1.706e-14 59.9939 59.9938-1.706e-14 134-3.412e-14 208.006-6.824e-14 268 59.9939 268 134 268 208.006 208.006 268 134 268 59.9938 268-8.52999e-14 208.006 0 134Z" stroke="#FFFFFF" stroke-width="4.58333" stroke-miterlimit="8" fill="#FFE699" fill-rule="evenodd" transform="matrix(1 0 0 -1 1503.5 437.5)"/><path d="M0 0 0.000360892 267.936" stroke="#FFFFFF" stroke-width="4.58333" stroke-miterlimit="8" fill="#FFE699" fill-rule="evenodd" transform="matrix(1 0 0 -1 1637.5 437.436)"/><path d="M0 0 189.459 189.459" stroke="#FFFFFF" stroke-width="4.58333" stroke-miterlimit="8" fill="#FFE699" fill-rule="evenodd" transform="matrix(1 0 0 -1 1542.5 398.959)"/><path d="M0 0 267.936 0.000360892" stroke="#FFFFFF" stroke-width="4.58333" stroke-miterlimit="8" fill="#FFE699" fill-rule="evenodd" transform="matrix(1 0 0 -1 1503.5 303.5)"/><path d="M1542.5 209.5 1731.96 398.959" stroke="#FFFFFF" stroke-width="4.58333" stroke-miterlimit="8" fill="#FFE699" fill-rule="evenodd"/><path d="M0 120.5C-1.52776e-14 53.9497 53.7258-1.53413e-14 120-3.06825e-14 186.274-6.1365e-14 240 53.9497 240 120.5 240 187.05 186.274 241 120 241 53.7258 241-7.6388e-14 187.05 0 120.5Z" stroke="#FFFFFF" stroke-width="4.58333" stroke-miterlimit="8" fill="#FFE699" fill-rule="evenodd" transform="matrix(1 0 0 -1 1517.5 424.5)"/><path d="M0 73.0001 31 73.0001 31 0 93.0001 0 93.0001 73.0001 124 73.0001 62.0001 135Z" stroke="#FFFFFF" stroke-width="4.58333" stroke-miterlimit="8" fill="#FFC000" fill-rule="evenodd" transform="matrix(-1 1.22465e-16 1.22465e-16 1 1699.5 244.5)"/></g></svg>